<?xml version="1.0" encoding="UTF-8" standalone="no" ?>
<!DOCTYPE svg PUBLIC "-//W3C//DTD SVG 1.1//EN" "http://www.w3.org/Graphics/SVG/1.1/DTD/svg11.dtd">
<svg xmlns="http://www.w3.org/2000/svg" xmlns:xlink="http://www.w3.org/1999/xlink" version="1.1" width="400" height="400" viewBox="0 0 400 400" xml:space="preserve">
<desc>Created with Fabric.js 3.6.2</desc>
<defs>
</defs>
<g transform="matrix(3.13 0 0 3.13 200 148.44)" id="Layer_11"  >
<path style="stroke: none; stroke-width: 1; stroke-dasharray: none; stroke-linecap: butt; stroke-dashoffset: 0; stroke-linejoin: miter; stroke-miterlimit: 4; fill: rgb(245,130,32); fill-rule: nonzero; opacity: 1;"  transform=" translate(-32, -15.5)" d="M 32 2 c -7.4 0 -13.5 6 -13.5 13.5 c 0 7.4 6 13.5 13.5 13.5 s 13.5 -6 13.5 -13.5 C 45.5 8 39.4 2 32 2 z M 32 20 c -2.5 0 -4.5 -2 -4.5 -4.5 c 0 -2.5 2 -4.5 4.5 -4.5 c 2.5 0 4.5 2 4.5 4.5 C 36.5 18 34.5 20 32 20 z" stroke-linecap="round" />
</g>
<g transform="matrix(3.13 0 0 3.13 200.01 243.37)" id="Layer_11"  >
<path style="stroke: none; stroke-width: 1; stroke-dasharray: none; stroke-linecap: butt; stroke-dashoffset: 0; stroke-linejoin: miter; stroke-miterlimit: 4; fill: rgb(245,130,32); fill-rule: nonzero; opacity: 1;"  transform=" translate(-32, -45.88)" d="M 48.6 38.1 c -3.4 1.9 -7.1 3.2 -10.8 3.8 l 10.5 12.9 c 1.2 1.5 1.5 3.6 0.4 5.2 c -1.7 2.6 -5.3 2.7 -7.1 0.4 l -9.7 -11.9 l -9.6 11.9 c -0.9 1.1 -2.1 1.6 -3.4 1.6 c -1.3 0 -2.6 -0.6 -3.5 -1.8 c -1.1 -1.5 -1 -4 0.2 -5.5 l 10.4 -13 c -3.7 -0.7 -7.4 -1.9 -10.7 -3.8 c -2.1 -1.2 -2.8 -3.8 -1.6 -6 c 1.2 -2.1 3.9 -2.8 6 -1.6 c 7.6 4.3 17.1 4.3 24.8 0.1 c 2.1 -1.2 4.8 -0.4 5.9 1.7 C 51.5 34.3 50.7 36.9 48.6 38.1 z" stroke-linecap="round" />
</g>
</svg>